<?xml version="1.0" encoding="utf-8"?>
<!-- Generator: Adobe Illustrator 19.0.0, SVG Export Plug-In . SVG Version: 6.00 Build 0)  -->
<svg version="1.1" id="Layer_1" xmlns="http://www.w3.org/2000/svg" xmlns:xlink="http://www.w3.org/1999/xlink" x="0px" y="0px"
	 viewBox="0 0 146 99" style="enable-background:new 0 0 146 99;" xml:space="preserve">
<style type="text/css">
	.st0{fill:#FF0000;}
</style>
<g id="XMLID_2453_">
	<g id="XMLID_2875_">
		<path id="XMLID_2876_" class="st0" d="M83.4,36.4c-3.6,2-11.4,5.4-17.2,5.4c-10,0-16.5-5-16.5-14.9V7.6h3.9v19.7
			c0,6.7,4.6,11.1,12.4,11.1c5.8,0,12.5-2.7,17.4-5.6V7.6h3.9v51.9h-3.9V36.4z"/>
	</g>
	<g id="XMLID_2872_">
		<path id="XMLID_2873_" d="M91.2,29.2c-3.6,2-11.4,5.4-17.2,5.4c-10,0-16.5-5-16.5-14.9V0.4h3.9v19.7c0,6.7,4.6,11.1,12.4,11.1
			c5.8,0,12.5-2.7,17.4-5.6V0.4H95v51.9h-3.9V29.2z"/>
	</g>
	<g id="XMLID_2631_">
		<path id="XMLID_2870_" d="M7.4,78.8c-0.8,0.4-2,0.9-3.2,0.9c-2.4,0-4.1-1.3-4.1-4.1v-4.4h2.7v3.7c0,1.5,0.6,2.4,2,2.4
			c1.1,0,2.1-0.3,2.7-0.8v-5.2h2.7v12.1H7.4V78.8z"/>
		<path id="XMLID_2868_" d="M12.7,71.2h9.1v2.4h-6.5V76h5.7v2.4h-5.7v2.5h6.6v2.4h-9.2V71.2z"/>
		<path id="XMLID_2848_" d="M24.1,71.2h5c2.9,0,4.6,1.7,4.6,4.2c0,2.8-2.2,4.3-4.9,4.3h-2v3.6h-2.7V71.2z M28.9,77.3
			c1.3,0,2.1-0.8,2.1-1.9c0-1.2-0.8-1.8-2.2-1.8h-2.1v3.7H28.9z"/>
		<path id="XMLID_2639_" d="M35.2,71.2h5.6c1.4,0,2.5,0.4,3.2,1.1c0.6,0.6,0.8,1.2,0.8,2.1c0,1.4-0.7,2.1-1.6,2.6
			c1.4,0.5,2.3,1.4,2.3,3c0,2.2-1.8,3.3-4.5,3.3h-5.8V71.2z M40.3,76.1c1.2,0,1.9-0.4,1.9-1.3c0-0.8-0.6-1.2-1.7-1.2h-2.6v2.6H40.3z
			 M41,81c1.2,0,1.9-0.4,1.9-1.4c0-0.8-0.6-1.3-2-1.3h-3.1V81H41z"/>
		<path id="XMLID_2636_" d="M46.8,77.3c0-3.4,2.7-6.3,6.5-6.3c3.7,0,6.4,2.8,6.4,6.3c0,3.4-2.7,6.3-6.5,6.3
			C49.5,83.5,46.8,80.7,46.8,77.3z M56.9,77.3c0-2.1-1.5-3.8-3.7-3.8c-2.1,0-3.6,1.7-3.6,3.8c0,2.1,1.5,3.8,3.7,3.8
			C55.4,81.1,56.9,79.4,56.9,77.3z"/>
		<path id="XMLID_2634_" d="M61.6,71.2h2.7V76h4.9v-4.8h2.7v12.1h-2.7v-4.9h-4.9v4.9h-2.7V71.2z"/>
		<path id="XMLID_2632_" d="M74.5,71.2h9.1v2.4h-6.5V76h5.7v2.4h-5.7v2.5h6.6v2.4h-9.2V71.2z"/>
	</g>
	<g id="XMLID_2611_">
		<path id="XMLID_2629_" d="M93.2,78.8c-0.8,0.4-2,0.9-3.2,0.9c-2.4,0-4.1-1.3-4.1-4.1v-4.4h2.7v3.7c0,1.5,0.6,2.4,2,2.4
			c1.1,0,2.1-0.3,2.7-0.8v-5.2h2.7v12.1h-2.7V78.8z"/>
		<path id="XMLID_2619_" d="M97.8,77.3c0-3.4,2.7-6.3,6.5-6.3c3.7,0,6.4,2.8,6.4,6.3c0,3.4-2.7,6.3-6.5,6.3
			C100.5,83.5,97.8,80.7,97.8,77.3z M107.9,77.3c0-2.1-1.5-3.8-3.7-3.8c-2.1,0-3.6,1.7-3.6,3.8c0,2.1,1.5,3.8,3.7,3.8
			C106.4,81.1,107.9,79.4,107.9,77.3z"/>
		<path id="XMLID_2616_" d="M112.6,71.2h5c2.9,0,4.6,1.7,4.6,4.2c0,2.8-2.2,4.3-4.9,4.3h-2v3.6h-2.7V71.2z M117.4,77.3
			c1.3,0,2.1-0.8,2.1-1.9c0-1.2-0.8-1.8-2.2-1.8h-2.1v3.7H117.4z"/>
		<path id="XMLID_2614_" d="M123.8,71.2h2.7V76h4.9v-4.8h2.7v12.1h-2.7v-4.9h-4.9v4.9h-2.7V71.2z"/>
		<path id="XMLID_2612_" d="M136.6,71.2h9.1v2.4h-6.5V76h5.7v2.4h-5.7v2.5h6.6v2.4h-9.2V71.2z"/>
	</g>
	<g id="XMLID_2461_">
		<path id="XMLID_2609_" d="M44.1,89.6h5.5v0.6h-4.9v8.3h-0.7V89.6z"/>
		<path id="XMLID_2606_" d="M53,89.5h0.6l4.1,9H57L55.9,96h-5.2l-1.1,2.5h-0.7L53,89.5z M55.6,95.4l-2.3-5.1l-2.3,5.1H55.6z"/>
		<path id="XMLID_2604_" d="M58.7,98.4l0.2-0.5c0.2,0.1,0.5,0.2,0.9,0.2c0.7,0,2-0.4,2-6.7v-1.7h5.4v8.9h-0.7v-8.3h-4.2v1.1
			c0,6.4-1.3,7.3-2.6,7.3C59.5,98.6,59,98.5,58.7,98.4z"/>
		<path id="XMLID_2602_" d="M69.5,89.6h6.3v0.6h-5.7v3.5h5.1v0.6h-5.1v3.6h5.7v0.6h-6.4V89.6z"/>
		<path id="XMLID_2599_" d="M77.6,89.6h3.2c2,0,3.3,1,3.3,2.7c0,1.9-1.6,2.8-3.5,2.8h-2.4v3.3h-0.7V89.6z M80.7,94.6
			c1.7,0,2.8-0.9,2.8-2.2c0-1.4-1.1-2.1-2.7-2.1h-2.5v4.4H80.7z"/>
		<path id="XMLID_2592_" d="M85.7,89.6H92v0.6h-5.7v3.5h5.1v0.6h-5.1v3.6h5.7v0.6h-6.4V89.6z"/>
		<path id="XMLID_2462_" d="M96.2,94.8c-1.5-0.2-2.5-1.1-2.5-2.6c0-1.5,1.2-2.6,3.2-2.6h3.7v8.9H100v-3.6h-3l-2.7,3.6h-0.8
			L96.2,94.8z M100,94.3v-4.1h-3c-1.6,0-2.6,0.8-2.6,2c0,1.3,1.1,2.1,2.6,2.1H100z"/>
	</g>
</g>
</svg>
